<?xml version="1.0" standalone="no"?>
<!DOCTYPE svg PUBLIC "-//W3C//DTD SVG 20010904//EN"
 "http://www.w3.org/TR/2001/REC-SVG-20010904/DTD/svg10.dtd">
<svg version="1.0" xmlns="http://www.w3.org/2000/svg"
 width="1560.000000pt" height="352.000000pt" viewBox="0 0 1560.000000 352.000000"
 preserveAspectRatio="xMidYMid meet">
<metadata>
Created by potrace 1.16, written by Peter Selinger 2001-2019
</metadata>
<g transform="translate(0.000000,352.000000) scale(0.100000,-0.100000)"
fill="#000000" stroke="none">
<path d="M1410 3066 c-303 -55 -532 -176 -741 -393 -179 -186 -294 -409 -345
-670 -26 -130 -23 -367 5 -500 98 -469 425 -838 874 -988 140 -47 255 -65 411
-65 375 0 691 133 949 399 186 193 307 427 352 685 20 116 20 346 0 462 -92
524 -497 943 -1025 1059 -102 23 -380 29 -480 11z m426 -51 c417 -73 781 -363
949 -756 198 -461 102 -993 -244 -1362 -424 -451 -1090 -532 -1612 -196 -113
74 -283 240 -356 349 -95 142 -162 301 -199 470 -26 117 -26 370 0 490 111
516 515 912 1025 1004 105 20 328 20 437 1z"/>
<path d="M1412 2905 c-229 -42 -437 -151 -607 -320 -460 -456 -456 -1189 9
-1650 75 -73 167 -145 188 -145 21 0 18 34 -5 68 -61 88 -77 209 -39 295 12
26 25 47 30 47 12 0 96 -99 115 -137 28 -52 22 -95 -19 -144 -40 -48 -40 -79
1 -114 13 -11 26 -30 30 -43 7 -25 59 -62 88 -62 10 0 31 -10 48 -22 30 -22
36 -23 267 -20 130 1 301 -3 380 -9 78 -6 145 -9 149 -5 3 3 -7 34 -23 68 -31
69 -43 167 -27 228 l9 35 90 5 c70 4 101 11 146 33 78 38 93 64 94 160 1 63 5
82 21 100 28 30 35 98 16 147 -20 49 -11 63 58 85 58 20 79 38 79 70 0 13 -29
92 -65 175 -38 88 -65 166 -65 186 0 19 -11 62 -25 96 -19 46 -22 64 -14 75 7
7 9 28 6 48 -3 19 -1 37 4 40 18 12 8 45 -20 66 -16 12 -39 35 -51 51 -19 26
-20 34 -10 52 35 66 -17 115 -86 82 -20 -9 -39 -15 -41 -12 -2 2 3 18 12 35
23 45 12 54 -54 48 l-56 -5 3 44 c3 37 13 53 78 122 41 44 74 83 74 86 0 11
-125 69 -210 98 -47 16 -123 35 -169 43 -102 18 -309 18 -409 0z m418 -52 c85
-17 164 -42 246 -78 l56 -25 -62 -67 -63 -68 -101 35 c-101 35 -102 35 -281
35 -202 0 -246 -8 -392 -75 -140 -65 -252 -151 -339 -264 -148 -188 -214 -398
-201 -635 10 -182 69 -352 169 -489 41 -57 45 -67 37 -95 -12 -43 -11 -139 1
-173 6 -15 8 -29 6 -31 -10 -10 -150 145 -201 222 -143 216 -202 422 -192 665
18 431 276 804 675 976 201 87 426 110 642 67z m-93 -214 c43 -6 113 -22 156
-36 67 -22 76 -28 64 -40 -12 -12 -27 -10 -103 12 -267 77 -553 19 -772 -158
-120 -97 -208 -227 -264 -387 -32 -93 -33 -99 -33 -265 0 -150 3 -179 23 -245
27 -85 71 -176 115 -237 20 -28 27 -48 23 -60 -6 -16 -11 -14 -37 17 -40 47
-124 220 -146 300 -28 103 -25 349 5 455 70 245 242 451 467 560 172 84 323
109 502 84z m54 -105 c86 -19 103 -32 84 -58 -14 -18 -15 -18 -15 -2 0 43
-102 -33 -140 -104 -12 -22 -19 -28 -20 -17 0 9 -7 17 -15 17 -19 0 -92 -66
-100 -91 -4 -10 -15 -19 -26 -19 -27 0 -96 -66 -111 -106 -8 -22 -15 -30 -20
-21 -10 17 -95 -67 -108 -109 -8 -24 -16 -31 -29 -27 -34 9 -101 -93 -101
-154 l-1 -28 -13 25 -14 24 -31 -33 c-30 -32 -51 -84 -51 -130 0 -19 -3 -21
-15 -11 -8 6 -19 9 -25 5 -18 -11 -50 -84 -56 -129 -5 -35 -10 -43 -24 -39
-13 3 -22 -8 -37 -44 l-20 -48 -22 60 c-92 245 -75 469 50 683 19 31 70 93
114 138 199 200 471 280 746 218z m219 3 c0 -24 -50 -86 -95 -117 -25 -17 -45
-28 -45 -24 0 19 54 96 87 123 41 34 53 38 53 18z m94 -72 c-17 -26 -106 -75
-136 -75 -60 0 73 95 140 99 9 1 8 -6 -4 -24z m-274 -55 c0 -34 -7 -47 -50
-90 -46 -46 -50 -48 -50 -26 0 38 16 72 56 115 20 23 38 41 40 41 2 0 4 -18 4
-40z m410 -12 c0 -6 -7 -19 -16 -29 -20 -22 -9 -43 53 -111 53 -55 60 -48 -92
-93 -239 -71 -336 -150 -512 -413 -41 -62 -80 -111 -86 -109 -6 2 -15 11 -21
20 -8 13 5 39 66 129 97 144 180 244 321 387 176 180 287 264 287 219z m-146
-4 c12 -4 -12 -32 -91 -107 -127 -122 -281 -304 -397 -470 -79 -115 -88 -123
-129 -134 -70 -19 -92 -57 -92 -160 -1 -76 -3 -85 -28 -111 -15 -15 -27 -31
-27 -35 0 -16 36 -5 61 19 15 15 29 21 33 16 7 -12 -54 -67 -134 -120 -47 -32
-52 -37 -32 -40 28 -4 96 28 156 73 44 35 45 35 52 12 4 -12 7 -33 5 -47 -1
-14 7 -76 18 -138 11 -62 18 -119 15 -127 -8 -19 -38 -25 -135 -25 -90 0 -149
-14 -149 -34 0 -18 268 -9 298 10 27 18 29 68 7 194 -19 107 -19 109 3 103 21
-5 73 -202 72 -279 0 -79 0 -79 -236 -79 l-202 0 5 65 c6 76 -8 113 -76 195
l-40 48 51 18 c58 19 101 58 123 112 14 34 14 37 -2 37 -13 0 -10 7 15 33 36
37 70 109 53 115 -5 2 5 17 23 33 39 34 69 90 60 113 -4 9 0 18 10 22 19 7 76
92 76 113 0 9 16 25 36 36 41 22 89 87 81 108 -3 9 7 18 28 26 33 11 105 81
105 101 0 6 -6 10 -12 10 -7 1 10 9 38 18 72 25 101 46 124 92 11 22 26 40 34
40 19 0 104 77 111 101 4 11 21 26 38 33 18 8 33 15 34 15 1 1 8 -2 17 -5z
m-164 -79 c-33 -34 -61 -47 -130 -60 l-35 -7 36 37 c36 37 94 64 138 65 25 0
24 -1 -9 -35z m-250 -26 c0 -34 -7 -47 -45 -87 -44 -47 -45 -47 -45 -19 0 50
53 147 82 147 4 0 8 -18 8 -41z m108 -104 c-35 -33 -90 -55 -136 -55 -33 0
-24 19 27 58 36 27 51 32 94 32 l52 -1 -37 -34z m-244 9 c12 -31 -13 -91 -49
-118 l-35 -27 0 26 c0 46 47 135 70 135 5 0 11 -7 14 -16z m740 -65 c-6 -10
-65 -39 -79 -39 -3 0 -5 6 -5 14 0 7 15 18 33 24 44 14 59 14 51 1z m-134 -33
c0 -14 -47 -66 -61 -66 -4 0 -15 -3 -24 -6 -13 -6 -16 -1 -13 22 2 22 12 34
38 46 42 22 60 23 60 4z m-510 -15 l25 -7 -32 -31 c-34 -32 -104 -57 -143 -51
-22 3 -21 5 18 45 47 48 80 59 132 44z m684 -61 c15 -36 31 -92 35 -126 6 -37
31 -108 66 -187 32 -70 55 -134 51 -142 -3 -9 -34 -29 -69 -44 -69 -31 -80
-45 -70 -91 3 -19 1 -30 -5 -30 -6 0 -27 -13 -45 -30 -19 -16 -44 -30 -56 -30
-11 0 -21 -4 -21 -10 0 -23 63 -9 97 20 19 17 39 27 45 24 7 -5 5 -12 -7 -20
-15 -11 -16 -16 -5 -29 19 -23 -1 -41 -28 -26 -26 14 -42 14 -42 1 0 -6 11
-15 25 -20 22 -8 24 -13 15 -29 -5 -11 -10 -47 -9 -81 1 -54 -1 -64 -26 -90
-64 -67 -213 -85 -327 -41 -78 30 -190 105 -270 182 -57 54 -68 70 -68 97 0
37 -6 39 -35 12 -12 -11 -28 -18 -36 -15 -20 8 -109 150 -120 191 -19 66 28
154 81 154 30 0 69 -40 82 -83 16 -58 25 -67 68 -67 24 0 43 -7 55 -20 15 -16
29 -20 63 -18 53 4 79 31 89 93 3 22 14 49 23 60 50 57 64 139 34 197 -16 31
-16 33 6 50 12 10 28 18 35 18 7 0 29 18 49 41 26 28 52 45 87 55 32 10 56 25
71 44 16 22 30 30 52 30 17 1 42 7 56 15 14 7 26 13 26 12 1 -1 14 -31 28 -67z
m-924 -40 c-6 -16 -23 -39 -37 -52 l-25 -23 4 58 c4 46 10 63 34 88 l29 31 3
-38 c2 -20 -2 -49 -8 -64z m596 28 c-8 -40 -52 -88 -81 -88 -14 0 -26 -10 -33
-25 -8 -17 -20 -25 -37 -25 -31 0 -31 5 1 47 23 30 137 123 151 123 3 0 3 -14
-1 -32z m-701 -137 c-9 -37 -54 -103 -65 -96 -21 13 -11 97 17 144 l27 46 13
-34 c8 -19 12 -46 8 -60z m235 72 c-1 -16 -46 -61 -75 -76 -16 -8 -50 -18 -74
-22 l-44 -7 21 26 c26 34 63 63 94 75 28 12 78 14 78 4z m278 -155 c2 -20 -7
-38 -37 -71 -39 -42 -53 -77 -31 -77 5 0 32 22 60 48 42 41 50 53 50 85 0 40
13 48 30 18 18 -34 11 -77 -19 -119 -16 -22 -34 -43 -40 -47 -6 -3 -11 -26
-11 -50 0 -68 -38 -95 -76 -54 -26 29 -37 171 -16 214 39 80 84 106 90 53z
m-618 -61 c0 -26 -33 -102 -48 -111 -12 -7 -32 46 -32 86 0 16 7 45 16 66 l15
37 25 -28 c13 -15 24 -38 24 -50z m220 65 c0 -13 -50 -61 -78 -76 -15 -8 -45
-18 -66 -21 -35 -7 -37 -6 -27 11 21 37 46 63 76 78 31 16 95 22 95 8z m-80
-138 c0 -15 -44 -66 -68 -78 -15 -8 -49 -17 -76 -21 l-49 -8 21 30 c12 16 28
36 36 43 32 25 136 52 136 34z m330 -84 c-12 -23 -33 -22 -38 1 -1 8 8 30 20
49 l23 35 3 -32 c2 -18 -2 -42 -8 -53z m-585 40 c21 -40 19 -89 -6 -130 l-21
-34 -19 34 c-23 44 -23 69 -3 120 19 48 28 50 49 10z m175 -109 c0 -20 -56
-75 -95 -92 -45 -21 -85 -25 -85 -8 0 27 38 73 75 90 42 20 105 25 105 10z
m-261 -47 c30 -38 35 -83 16 -132 -10 -23 -21 -42 -26 -42 -5 0 -19 20 -31 44
-20 41 -20 49 -9 100 7 31 16 56 21 56 5 0 18 -12 29 -26z m187 -111 c-8 -16
-25 -38 -38 -49 -25 -23 -96 -50 -105 -40 -5 4 25 85 31 86 1 0 19 7 41 15 22
8 50 14 63 15 21 0 22 -1 8 -27z m579 -238 c56 -45 185 -115 212 -115 16 0 16
5 -2 -54 -19 -63 -19 -152 0 -206 8 -24 14 -45 12 -47 -2 -1 -30 2 -63 8 -38
7 -112 9 -206 5 -82 -4 -148 -3 -148 1 1 29 15 52 36 57 38 10 57 48 50 98 -4
24 -6 77 -6 119 1 65 -12 141 -47 264 -3 13 13 3 48 -31 30 -28 81 -73 114
-99z m-635 -227 c0 -7 -4 -19 -9 -27 -11 -17 -25 3 -17 24 7 18 26 20 26 3z
m183 -62 c-4 -47 -2 -72 10 -95 14 -29 14 -31 -2 -31 -33 0 -55 37 -59 100 -5
64 6 90 39 90 16 0 18 -6 12 -64z m148 24 c5 -22 21 -47 45 -67 36 -32 36 -33
20 -57 -19 -30 -76 -44 -112 -27 -35 15 -58 75 -50 129 8 59 12 64 54 60 33
-3 37 -7 43 -38z m151 -25 c-16 -34 -54 -33 -81 1 -30 38 -27 55 8 48 16 -3
37 -1 48 4 25 15 41 -18 25 -53z m-394 -10 c0 -36 -3 -65 -7 -65 -4 0 -17 7
-29 16 -17 12 -22 25 -22 59 0 43 7 53 42 54 14 1 16 -9 16 -64z"/>
<path d="M1627 2808 c-10 -80 -9 -98 7 -98 18 0 24 20 28 90 2 43 -1 56 -14
58 -11 2 -17 -9 -21 -50z"/>
<path d="M1443 2842 c-17 -10 5 -132 24 -139 23 -9 25 2 12 69 -13 70 -19 81
-36 70z"/>
<path d="M1811 2771 c-21 -55 -22 -81 -2 -81 8 0 61 113 61 131 0 5 -8 9 -18
9 -12 0 -25 -18 -41 -59z"/>
<path d="M1244 2789 c-11 -18 47 -129 68 -129 25 0 23 11 -12 80 -30 59 -42
70 -56 49z"/>
<path d="M1962 2723 c-32 -42 -39 -59 -30 -65 7 -4 15 -8 18 -8 9 0 90 108 90
119 0 28 -39 5 -78 -46z"/>
<path d="M1056 2701 c-8 -12 82 -111 100 -111 23 0 16 20 -27 71 -39 47 -62
59 -73 40z"/>
<path d="M890 2575 c0 -15 96 -85 117 -85 29 0 10 32 -39 65 -57 38 -78 43
-78 20z"/>
<path d="M746 2425 c-4 -10 2 -19 17 -24 12 -5 41 -17 64 -26 41 -17 73 -15
73 3 0 8 -124 62 -142 62 -3 0 -9 -7 -12 -15z"/>
<path d="M637 2246 c-8 -21 0 -25 82 -32 60 -6 71 -5 71 9 0 10 -14 17 -42 22
-24 3 -57 9 -74 12 -22 3 -33 0 -37 -11z"/>
<path d="M597 2063 c-29 -3 -37 -8 -35 -21 3 -13 12 -16 43 -14 81 5 115 14
115 28 0 14 -33 16 -123 7z"/>
<path d="M600 1876 c-41 -14 -66 -29 -68 -39 -4 -22 11 -21 86 4 47 16 62 25
62 40 0 23 1 23 -80 -5z"/>
<path d="M598 1679 c-39 -26 -58 -47 -58 -60 0 -20 0 -20 38 2 73 44 92 61 92
80 0 26 -6 24 -72 -22z"/>
<path d="M633 1484 c-49 -56 -57 -74 -37 -81 16 -5 104 93 104 117 0 32 -15
24 -67 -36z"/>
<path d="M711 1301 c-32 -60 -41 -106 -19 -99 18 6 81 126 74 143 -10 26 -23
16 -55 -44z"/>
<path d="M812 1138 c-15 -61 -18 -86 -10 -96 6 -7 14 -9 18 -5 13 14 42 152
36 168 -12 31 -24 12 -44 -67z"/>
<path d="M2192 1949 c-34 -13 -142 -90 -142 -100 0 -15 13 -10 90 36 76 46 94
52 105 35 9 -15 25 -12 25 5 0 14 -30 36 -47 34 -4 0 -19 -4 -31 -10z"/>
<path d="M2234 1886 c-3 -8 -18 -17 -33 -21 -15 -3 -53 -24 -85 -45 -32 -22
-65 -40 -72 -40 -23 0 -16 -19 9 -24 44 -9 163 -17 178 -11 10 4 13 17 11 46
-3 22 1 46 7 52 14 14 14 44 1 52 -6 3 -13 0 -16 -9z m-14 -86 c0 -23 -31 -34
-72 -24 l-32 6 44 23 c49 25 60 24 60 -5z"/>
<path d="M1456 1608 c-10 -14 -16 -44 -16 -79 0 -47 4 -60 26 -83 15 -14 31
-26 36 -26 4 0 13 -11 18 -25 12 -32 50 -35 50 -4 0 15 -5 19 -15 15 -8 -3
-15 0 -15 6 0 6 -18 28 -40 48 -23 21 -40 46 -40 59 0 29 26 91 39 91 13 0 23
-34 21 -73 -3 -51 -1 -57 20 -57 20 0 27 14 11 24 -4 3 -6 29 -3 57 5 56 -3
69 -50 69 -17 0 -33 -9 -42 -22z"/>
<path d="M2276 1599 c-11 -54 -7 -89 10 -96 17 -6 134 45 134 59 0 14 -29 9
-70 -12 -58 -29 -62 -27 -54 30 7 55 -9 71 -20 19z"/>
<path d="M4793 3073 c-19 -7 -16 -32 17 -148 83 -297 84 -667 2 -940 l-18 -60
-7 122 c-7 135 -16 166 -50 161 -22 -3 -22 -6 -22 -188 0 -160 -3 -196 -23
-266 -107 -394 -400 -675 -787 -755 -49 -10 -109 -19 -131 -19 -71 0 -88 -60
-19 -68 42 -5 216 26 295 53 39 13 70 22 70 20 0 -7 -180 -115 -246 -148 -57
-28 -65 -35 -62 -57 2 -17 10 -26 26 -28 25 -4 158 65 267 138 39 25 75 49 81
53 6 4 -23 -46 -65 -111 -43 -64 -94 -145 -115 -179 -43 -71 -45 -108 -7 -108
20 0 37 21 100 122 42 67 77 120 78 119 2 -2 -5 -36 -16 -77 -23 -90 -45 -254
-37 -275 4 -10 16 -14 33 -12 26 3 27 5 44 123 74 513 424 926 922 1089 162
54 282 70 466 63 286 -10 523 -96 756 -272 54 -41 104 -74 109 -72 5 2 14 11
20 20 16 25 1 43 -98 118 -158 120 -369 215 -573 256 -132 27 -414 24 -548 -5
-54 -12 -101 -20 -103 -18 -6 7 175 69 283 96 167 43 280 53 488 47 187 -6
263 -17 425 -63 85 -24 95 -25 109 -11 21 20 10 45 -24 58 -59 23 -218 59
-330 75 -170 23 -443 15 -607 -20 -174 -36 -303 -81 -462 -161 -78 -39 -140
-65 -137 -59 7 18 276 269 415 386 218 185 566 438 727 528 34 20 41 29 39 50
-5 44 -38 36 -159 -41 -356 -227 -691 -494 -998 -797 -84 -84 -151 -146 -148
-139 120 282 167 500 167 778 0 171 -17 308 -55 458 -41 162 -52 181 -92 164z"/>
<path d="M3450 1730 c0 -873 3 -1320 10 -1320 7 0 10 447 10 1320 0 873 -3
1320 -10 1320 -7 0 -10 -447 -10 -1320z"/>
<path d="M10963 2559 c-84 -41 -117 -125 -111 -281 3 -96 6 -110 33 -153 40
-64 97 -95 177 -95 61 0 118 18 152 48 23 21 55 89 56 120 0 20 -5 22 -53 22
-54 0 -54 0 -70 -40 -18 -48 -55 -66 -107 -53 -56 13 -75 57 -75 178 0 115 15
154 65 175 50 21 91 3 115 -48 19 -42 20 -42 74 -42 l54 0 -6 36 c-9 55 -52
113 -100 135 -58 26 -149 25 -204 -2z"/>
<path d="M12803 2560 c-53 -24 -83 -70 -83 -128 0 -83 37 -122 160 -170 46
-17 80 -37 93 -54 19 -25 19 -28 4 -52 -21 -31 -75 -43 -113 -24 -27 13 -37
26 -48 61 -4 13 -17 17 -61 17 -61 0 -66 -9 -44 -67 27 -71 100 -113 199 -113
121 0 190 55 190 150 0 81 -55 139 -168 175 -72 23 -107 54 -99 87 16 60 120
61 146 0 14 -30 17 -32 69 -32 l55 0 -6 37 c-8 48 -34 82 -83 110 -51 30 -150
31 -211 3z"/>
<path d="M7200 2305 l0 -265 61 0 61 0 -7 173 c-4 94 -5 170 -3 167 3 -3 31
-80 63 -172 l58 -168 42 0 42 0 37 108 c20 59 48 136 61 172 l25 65 -6 -172
-6 -173 61 0 61 0 0 265 0 265 -74 0 -74 0 -36 -102 c-20 -57 -49 -141 -65
-188 -16 -47 -30 -80 -30 -73 -1 6 -29 90 -62 187 l-61 176 -74 0 -74 0 0
-265z"/>
<path d="M7979 2543 c-20 -53 -179 -495 -179 -499 0 -2 27 -4 59 -4 l60 0 17
55 18 55 87 0 88 0 17 -55 18 -55 126 0 127 0 44 85 c50 97 46 98 105 -17 l34
-68 65 0 c36 0 65 2 65 5 0 3 -33 64 -74 134 l-74 129 37 63 c21 35 54 94 75
132 l38 67 -66 0 -65 0 -43 -80 c-24 -44 -46 -80 -50 -80 -4 0 -26 36 -48 80
l-40 80 -65 0 c-36 0 -65 -2 -65 -3 0 -2 32 -60 70 -128 39 -68 70 -127 70
-131 0 -8 -140 -258 -145 -258 -1 0 -44 117 -95 260 l-93 260 -54 0 c-49 0
-54 -2 -64 -27z m116 -282 c6 -20 3 -21 -49 -21 -40 0 -56 4 -56 13 0 12 29
104 46 147 5 13 26 -36 59 -139z"/>
<path d="M9000 2305 l0 -265 60 0 60 0 0 94 0 94 89 4 c99 3 126 16 169 79 20
29 23 44 20 96 -5 75 -26 109 -88 141 -39 19 -59 22 -177 22 l-133 0 0 -265z
m256 151 c21 -18 28 -32 28 -60 0 -53 -22 -69 -99 -74 l-65 -4 0 81 0 81 54 0
c43 0 61 -5 82 -24z"/>
<path d="M9470 2305 l0 -265 170 0 170 0 0 45 0 45 -110 0 -110 0 0 220 0 220
-60 0 -60 0 0 -265z"/>
<path d="M9999 2543 c-20 -53 -179 -495 -179 -499 0 -2 27 -4 59 -4 l60 0 17
55 18 55 87 0 88 0 17 -55 18 -55 62 0 62 0 -65 178 c-35 97 -78 216 -95 265
l-31 87 -54 0 c-49 0 -54 -2 -64 -27z m116 -282 c6 -20 3 -21 -49 -21 -40 0
-56 4 -56 13 0 12 29 104 46 147 5 13 26 -36 59 -139z"/>
<path d="M10350 2305 l0 -265 60 0 60 0 0 162 0 162 94 -159 94 -160 61 -3 61
-3 0 266 0 265 -60 0 -60 0 -2 -160 -3 -161 -94 161 -93 160 -59 0 -59 0 0
-265z"/>
<path d="M11330 2305 l0 -265 60 0 60 0 0 78 c0 70 3 81 24 101 l23 22 63
-100 62 -101 68 0 69 0 -93 147 -94 147 81 106 c44 58 85 111 90 118 7 9 -6
12 -61 12 l-70 0 -79 -106 -78 -105 -3 105 -3 106 -59 0 -60 0 0 -265z"/>
<path d="M12020 2305 l0 -265 55 0 55 0 0 265 0 265 -55 0 -55 0 0 -265z"/>
<path d="M12220 2305 l0 -265 60 0 60 0 0 162 0 162 94 -159 94 -160 61 -3 61
-3 0 266 0 265 -60 0 -60 0 -2 -160 -3 -161 -94 161 -93 160 -59 0 -59 0 0
-265z"/>
<path d="M13140 2525 l0 -45 75 0 75 0 0 -220 0 -220 60 0 60 0 0 220 0 220
80 0 80 0 0 45 0 45 -215 0 -215 0 0 -45z"/>
<path d="M13620 2305 l0 -265 55 0 55 0 0 265 0 265 -55 0 -55 0 0 -265z"/>
<path d="M13780 2525 l0 -45 75 0 75 0 0 -220 0 -220 60 0 60 0 0 220 0 220
80 0 80 0 0 45 0 45 -215 0 -215 0 0 -45z"/>
<path d="M14260 2363 c0 -197 2 -210 23 -248 57 -102 249 -117 330 -27 39 43
46 89 47 290 l0 192 -60 0 -60 0 0 -199 c0 -180 -2 -201 -19 -222 -28 -35 -95
-33 -127 4 -24 28 -24 32 -24 223 l0 194 -55 0 -55 0 0 -207z"/>
<path d="M14700 2525 l0 -45 75 0 75 0 0 -220 0 -220 60 0 60 0 0 220 0 220
80 0 80 0 0 45 0 45 -215 0 -215 0 0 -45z"/>
<path d="M8710 2265 l0 -45 105 0 105 0 0 45 0 45 -105 0 -105 0 0 -45z"/>
<path d="M11720 2265 l0 -45 105 0 105 0 0 45 0 45 -105 0 -105 0 0 -45z"/>
<path d="M7665 1671 c-12 -38 3 -62 37 -59 17 2 36 11 42 21 16 25 -4 51 -42
55 -23 2 -32 -2 -37 -17z"/>
<path d="M7822 1678 c-28 -28 -3 -72 39 -66 30 4 47 33 33 56 -14 21 -55 27
-72 10z"/>
<path d="M10137 1559 c-73 -38 -99 -128 -57 -197 20 -33 65 -58 195 -108 86
-34 99 -109 25 -147 -63 -33 -151 -5 -173 54 -10 25 -17 29 -50 29 -32 0 -38
-3 -33 -16 3 -9 6 -22 6 -29 0 -24 53 -77 95 -96 88 -40 227 -13 260 52 8 15
15 51 15 80 0 47 -4 55 -38 88 -25 24 -64 45 -119 64 -91 32 -123 59 -123 103
0 101 179 107 204 8 5 -20 13 -24 42 -24 36 0 37 0 31 37 -7 42 -48 89 -94
109 -48 21 -141 17 -186 -7z"/>
<path d="M7200 1305 l0 -265 40 0 40 0 0 115 0 115 110 0 110 0 0 30 0 30
-110 0 -110 0 0 90 0 90 125 0 125 0 0 30 0 30 -165 0 -165 0 0 -265z"/>
<path d="M7590 1356 c0 -204 1 -214 23 -246 42 -62 69 -75 162 -75 93 0 120
13 163 75 21 32 22 42 22 246 l0 214 -35 0 -35 0 0 -192 c0 -164 -3 -198 -18
-228 -36 -73 -150 -77 -192 -7 -18 29 -20 51 -20 230 l0 197 -35 0 -35 0 0
-214z"/>
<path d="M8060 1305 l0 -265 40 0 40 0 0 105 0 106 57 -3 58 -3 53 -102 53
-103 45 0 46 0 -20 33 c-10 17 -38 67 -62 111 -45 82 -45 80 1 106 50 28 65
153 26 211 -38 57 -75 69 -214 69 l-123 0 0 -265z m256 173 c20 -20 27 -36 27
-68 0 -32 -7 -48 -27 -68 -23 -23 -36 -27 -101 -30 l-75 -4 0 102 0 102 75 -4
c65 -3 78 -7 101 -30z"/>
<path d="M8680 1305 l0 -265 40 0 40 0 0 100 0 100 93 0 c147 0 198 38 205
153 4 80 -17 123 -78 155 -39 19 -59 22 -172 22 l-128 0 0 -265z m245 191 c40
-17 58 -47 58 -99 0 -28 -7 -46 -26 -65 -23 -22 -36 -26 -111 -30 l-86 -5 0
107 0 106 65 0 c36 0 81 -6 100 -14z"/>
<path d="M9140 1305 l0 -265 40 0 40 0 0 120 0 120 125 0 125 0 0 -120 0 -120
40 0 40 0 0 265 0 265 -40 0 -40 0 0 -115 0 -115 -125 0 -125 0 0 115 0 115
-40 0 -40 0 0 -265z"/>
<path d="M9593 1563 c2 -5 43 -81 91 -170 l86 -162 0 -96 0 -95 35 0 35 0 0
95 0 95 69 128 c37 70 78 146 90 170 l21 42 -42 0 -43 0 -64 -127 -63 -128
-64 128 -64 127 -46 0 c-25 0 -43 -3 -41 -7z"/>
<path d="M10500 1305 l0 -265 40 0 40 0 0 265 0 265 -40 0 -40 0 0 -265z"/>
<path d="M10690 1305 l0 -265 40 0 40 0 0 87 c0 81 2 89 27 115 15 15 30 28
33 28 4 0 44 -52 90 -115 l84 -115 48 0 47 0 -72 98 c-40 53 -89 120 -109 148
l-37 50 86 100 c47 54 92 107 101 117 14 16 12 17 -34 17 l-49 -1 -107 -125
-108 -125 0 125 0 126 -40 0 -40 0 0 -265z"/>
<path d="M5119 934 c-17 -9 -40 -43 -68 -101 -24 -49 -50 -96 -58 -105 -17
-19 -34 -94 -26 -115 7 -18 43 -17 63 2 14 13 31 14 109 6 51 -6 98 -8 106 -5
29 12 27 70 -7 151 -17 43 -37 101 -43 128 -13 55 -30 64 -76 39z m66 -158
c20 -56 32 -103 27 -108 -9 -9 -132 0 -151 11 -20 13 -15 46 20 118 28 59 50
86 66 78 1 0 18 -45 38 -99z"/>
<path d="M4498 928 c-37 -31 -158 -241 -158 -276 0 -15 7 -23 23 -26 185 -34
210 -37 224 -24 11 12 11 35 -1 149 -8 74 -19 146 -25 162 -11 29 -37 35 -63
15z m42 -172 c6 -59 10 -110 8 -111 -2 -2 -28 3 -58 12 -30 8 -66 15 -78 14
-23 -1 -23 0 14 67 62 111 85 145 94 136 5 -5 14 -58 20 -118z"/>
<path d="M6314 885 c-14 -14 -30 -39 -36 -55 -9 -28 -12 -30 -49 -24 -35 6
-39 4 -39 -14 0 -11 8 -23 19 -27 35 -11 32 -55 -14 -167 -11 -28 41 -24 56 4
l12 23 10 -23 c16 -35 97 -24 97 14 0 12 -7 14 -30 9 -26 -6 -30 -4 -30 15 0
13 -8 24 -20 27 -16 4 -19 11 -14 32 12 50 21 53 118 50 78 -3 91 -2 94 12 4
20 -44 39 -100 39 l-39 0 26 37 c14 21 25 46 25 55 0 28 -56 23 -86 -7z"/>
<path d="M6015 853 c-9 -27 -18 -58 -19 -69 -1 -19 -6 -21 -38 -16 -33 4 -38
2 -38 -16 0 -26 18 -32 99 -32 67 0 91 10 91 38 0 11 -9 13 -40 8 -43 -7 -48
-2 -27 23 18 23 39 89 32 101 -16 26 -43 9 -60 -37z"/>
<path d="M5516 851 c-24 -38 116 -121 202 -121 l35 0 -54 -28 c-30 -15 -63
-32 -74 -38 -11 -6 -33 -18 -50 -27 -16 -9 -31 -23 -33 -31 -5 -24 36 -20 88
9 25 14 74 39 110 57 116 57 120 90 13 99 -73 7 -149 36 -180 71 -17 19 -48
24 -57 9z"/>
<path d="M4699 768 c-12 -18 -33 -45 -47 -60 -26 -28 -22 -53 8 -45 16 4 16
-1 -3 -73 -35 -134 5 -150 48 -19 18 52 35 86 52 99 14 11 29 18 32 15 5 -6
-13 -21 -33 -28 -5 -2 -7 -11 -3 -21 5 -13 16 -16 44 -14 36 3 38 5 41 40 6
67 -28 95 -80 67 -19 -10 -20 -9 -14 14 3 14 9 32 12 41 12 31 -34 17 -57 -16z"/>
<path d="M5405 783 c-34 -8 -85 -64 -85 -93 0 -30 16 -50 42 -50 16 0 16 -3 2
-42 -8 -23 -26 -62 -39 -86 -14 -25 -25 -52 -25 -62 0 -19 21 -32 36 -22 13
10 43 76 70 156 13 38 30 79 37 90 21 31 29 87 16 102 -12 14 -19 15 -54 7z
m15 -51 c0 -13 -30 -52 -41 -52 -14 0 -11 22 8 42 17 19 33 24 33 10z"/>
<path d="M4887 703 c-15 -14 -7 -43 12 -43 26 0 36 17 21 35 -14 16 -23 19
-33 8z"/>
<path d="M5972 698 c-18 -18 -15 -48 5 -48 14 0 14 -2 -3 -21 -10 -12 -31 -27
-46 -35 -16 -8 -28 -21 -28 -29 0 -17 27 -20 49 -6 9 6 21 5 32 -2 13 -8 24
-8 43 1 31 14 35 42 6 42 -19 0 -20 1 -5 24 24 37 16 80 -15 84 -14 2 -31 -3
-38 -10z"/>
<path d="M5665 615 c-54 -29 -101 -57 -102 -62 -2 -6 3 -16 12 -23 13 -10 18
-10 33 2 18 15 174 93 205 102 9 3 17 12 17 21 0 29 -63 14 -165 -40z"/>
</g>
</svg>
